<?xml version="1.0" encoding="UTF-8" standalone="no"?>
<svg viewBox="0 0 590 540" version="1.1" xmlns="http://www.w3.org/2000/svg" xmlns:xlink="http://www.w3.org/1999/xlink" xmlns:sketch="http://www.bohemiancoding.com/sketch/ns">
    <!-- Generator: Sketch 3.1.1 (8761) - http://www.bohemiancoding.com/sketch -->
    <title>_election_party 2</title>
    <desc>Created with Sketch.</desc>
    <defs></defs>
    <g id="Page-1" stroke="none" stroke-width="1" fill="none" fill-rule="evenodd" sketch:type="MSPage">
        <g id="Group" sketch:type="MSLayerGroup" transform="translate(0.000000, 6.000000)">
            <g transform="translate(0.000000, 256.000000)" id="Shape" fill="#EFEDE9" sketch:type="MSShapeGroup">
                <path d="M-0.1,1 L55.8,1 L55.8,15.5 L16.1,15.5 L16.1,30.5 L51.1,30.5 L51.1,45 L16.1,45 L16.1,60.6 L56.4,60.6 L56.4,75.1 L-0.1,75.1 L-0.1,1 L-0.1,1 Z"></path>
                <path d="M77.2,1 L93.5,1 L93.5,60.3 L130.5,60.3 L130.5,75.1 L77.2,75.1 L77.2,1 L77.2,1 Z"></path>
                <path d="M149.2,1 L205.1,1 L205.1,15.5 L165.4,15.5 L165.4,30.5 L200.4,30.5 L200.4,45 L165.4,45 L165.4,60.6 L205.7,60.6 L205.7,75.1 L149.2,75.1 L149.2,1 L149.2,1 Z"></path>
                <path d="M223.2,38.3 L223.2,38.1 C223.2,17 239.1,-0.2 261.9,-0.2 C275.9,-0.2 284.3,4.5 291.1,11.2 L280.7,23.2 C275,18 269.2,14.8 261.7,14.8 C249.2,14.8 240.2,25.2 240.2,37.9 L240.2,38.1 C240.2,50.8 249,61.4 261.7,61.4 C270.2,61.4 275.4,58 281.2,52.7 L291.6,63.2 C284,71.4 275.5,76.4 261.2,76.4 C239.4,76.5 223.2,59.6 223.2,38.3 L223.2,38.3 Z"></path>
                <path d="M328.3,16.1 L305.7,16.1 L305.7,1.1 L367.1,1.1 L367.1,16.1 L344.5,16.1 L344.5,75.2 L328.2,75.2 L328.2,16.1 L328.3,16.1 Z"></path>
                <path d="M386.8,1 L403.1,1 L403.1,75.1 L386.8,75.1 L386.8,1 L386.8,1 Z"></path>
                <path d="M424.7,38.3 L424.7,38.1 C424.7,17 441.3,-0.2 464.2,-0.2 C487.1,-0.2 503.5,16.9 503.5,37.9 L503.5,38.1 C503.5,59.2 486.9,76.4 464,76.4 C441.1,76.5 424.7,59.4 424.7,38.3 L424.7,38.3 Z M486.4,38.3 L486.4,38.1 C486.4,25.4 477.1,14.8 463.9,14.8 C450.8,14.8 441.7,25.2 441.7,37.9 L441.7,38.1 C441.7,50.8 451,61.4 464.2,61.4 C477.3,61.4 486.4,51 486.4,38.3 L486.4,38.3 Z"></path>
                <path d="M539.4,1 L574.1,46.7 L574.1,1 L590.2,1 L590.2,75.1 L576.3,75.1 L540.4,28 L540.4,75.1 L524.3,75.1 L524.3,1 L539.4,1 Z"></path>
            </g>
            <g transform="translate(70.000000, 93.000000)" id="Shape" fill="#EFEDE9" sketch:type="MSShapeGroup">
                <path d="M33.3,69.9 C49.8,59 61.2,51.4 61.2,34.9 C61.2,22.2 54.8,15 43.7,15 C35.9,15 29.6,18.2 26.4,23.8 C33.6,26.2 37.5,32 37.5,39.1 C37.5,47.9 31.5,55.4 20.2,55.4 C9.3,55.4 1.7,47 1.7,35.1 C1.7,17.6 20.2,0.1 50.7,0.1 C82.9,0.1 101.4,15.2 101.4,36.7 C101.4,61.6 78.5,69.5 59.2,76.5 C40.1,83.9 23.4,88.4 18.2,102.8 L19.2,103.6 C25.6,98.4 33.3,94.8 44.7,94.8 C59,94.8 68.2,100.8 78.3,100.8 C85.5,100.8 87.9,96.6 90.4,84.9 L102.9,85.9 C101.9,120.7 92.4,132.7 75.8,132.7 C51.3,132.7 45.2,110 32,110 C30.6,110 29.4,110.2 28.2,110.4 C29.8,111.6 32,115 32,119.6 C32,126.8 27,132.9 18.1,132.9 C7.8,132.9 0.2,124.3 0.2,110.6 C0.3,89 21.4,77.6 33.3,69.9 L33.3,69.9 Z"></path>
                <path d="M117.3,66.9 C117.3,24.3 141,0 172.4,0 C204.4,0 227.5,23.3 227.5,65.7 C227.5,108.7 204,132.6 172.4,132.6 C140.4,132.5 117.3,109.3 117.3,66.9 L117.3,66.9 Z M189.8,66.1 C189.8,27.9 182.8,16.5 171.9,16.5 C161.2,16.5 155.2,28.2 155.2,66.5 C155.2,104.8 162.2,116.1 173.1,116.1 C183.8,116 189.8,104.3 189.8,66.1 L189.8,66.1 Z"></path>
                <path d="M242.7,111.2 L269,111.2 L269,34 C266.6,34.6 263,35 258.8,35 C252.8,35 246.5,34 241.7,32.6 L241.7,17.1 C261,17.9 276.3,12.3 283.5,1.4 L304.6,1.4 L304.6,111.3 L329.9,111.3 L329.9,129.4 L242.7,129.4 L242.7,111.2 L242.7,111.2 Z"></path>
                <path d="M445.9,110.6 L445.9,129.3 L374,129.3 L374,110.6 L394.9,110.6 L394.9,93.7 L333.8,93.7 L333.8,75.2 L393.3,1 L427.7,1 L427.7,75 L450.8,75 L450.8,93.7 L427.7,93.7 L427.7,110.6 L445.9,110.6 L445.9,110.6 Z M394.9,25.1 L393.7,25.1 L354.9,75.1 L394.9,75.1 L394.9,25.1 L394.9,25.1 Z"></path>
            </g>
            <g transform="translate(154.000000, 467.000000)" id="Shape" fill="#538ECD" sketch:type="MSShapeGroup">
                <path d="M63.2,24.2 C62.7,22.8 61.5,21.8 60.1,21.5 L43.4,18.9 L35.4,2 C34.7,0.6 33.4,-0.3 31.8,-0.3 C30.2,-0.3 28.9,0.6 28.2,2 L20.2,18.9 L3.5,21.5 C2,21.7 0.8,22.8 0.4,24.2 C0.3,24.6 0.2,25 0.2,25.4 C0.2,26.4 0.6,27.4 1.4,28.2 L13.7,40.5 L10.2,58.2 C9.9,59.7 10.5,61.3 11.7,62.2 C12.4,62.7 13.2,63 14,63 C14.7,63 15.3,62.8 15.9,62.5 L31.8,53.7 L47.7,62.5 C48.3,62.8 49,63 49.6,63 C50.4,63 51.2,62.7 51.9,62.2 C53.1,61.3 53.7,59.7 53.4,58.2 L49.9,40.5 L62.2,28.2 C63,27.4 63.4,26.4 63.4,25.4 C63.4,25.1 63.4,24.6 63.2,24.2 L63.2,24.2 Z"></path>
                <path d="M168.1,24.2 C167.6,22.8 166.4,21.8 165,21.5 L148.3,18.9 L140.3,2 C139.6,0.6 138.3,-0.3 136.7,-0.3 C135.1,-0.3 133.8,0.6 133.1,2 L125.1,18.9 L108.4,21.5 C106.9,21.7 105.7,22.8 105.3,24.2 C105.2,24.6 105.1,25 105.1,25.4 C105.1,26.4 105.5,27.4 106.3,28.2 L118.6,40.5 L115,58.3 C114.7,59.8 115.3,61.4 116.5,62.3 C117.2,62.8 118,63.1 118.8,63.1 C119.5,63.1 120.1,62.9 120.7,62.6 L136.6,53.8 L152.5,62.6 C153.1,62.9 153.8,63.1 154.4,63.1 C155.2,63.1 156,62.8 156.7,62.3 C157.9,61.4 158.5,59.8 158.2,58.3 L154.7,40.6 L167,28.3 C167.8,27.5 168.2,26.5 168.2,25.5 C168.3,25.1 168.2,24.6 168.1,24.2 L168.1,24.2 Z"></path>
                <path d="M282.3,24.2 C281.8,22.8 280.6,21.8 279.2,21.5 L262.5,18.9 L254.5,2 C253.8,0.6 252.5,-0.3 250.9,-0.3 C249.4,-0.3 248,0.6 247.3,2 L239.3,18.9 L222.6,21.5 C221.1,21.7 219.9,22.8 219.5,24.2 C219.4,24.6 219.3,25 219.3,25.4 C219.3,26.4 219.7,27.4 220.5,28.2 L232.8,40.5 L229.3,58.2 C229,59.7 229.6,61.3 230.8,62.2 C231.5,62.7 232.3,63 233.1,63 C233.8,63 234.4,62.8 235,62.5 L250.9,53.7 L266.8,62.5 C267.4,62.8 268.1,63 268.7,63 C269.5,63 270.3,62.7 271,62.2 C272.2,61.3 272.8,59.7 272.5,58.2 L269,40.5 L281.3,28.2 C282.1,27.4 282.5,26.4 282.5,25.4 C282.5,25.1 282.4,24.6 282.3,24.2 L282.3,24.2 Z"></path>
            </g>
            <g transform="translate(154.000000, 0.000000)" id="Shape" fill="#538ECD" sketch:type="MSShapeGroup">
                <path d="M63,24.2 C62.5,22.8 61.3,21.8 59.9,21.5 L43.2,18.9 L35.2,2 C34.5,0.6 33.2,-0.3 31.6,-0.3 C30.1,-0.3 28.7,0.6 28,2 L20,18.9 L3.3,21.6 C1.8,21.8 0.6,22.9 0.2,24.3 C0.1,24.6 0,25.1 0,25.5 C0,26.5 0.4,27.5 1.2,28.3 L13.5,40.6 L10,58.3 C9.7,59.8 10.3,61.4 11.5,62.3 C12.2,62.8 13,63.1 13.8,63.1 C14.5,63.1 15.1,62.9 15.7,62.6 L31.6,53.8 L47.5,62.6 C48.1,62.9 48.8,63.1 49.4,63.1 C50.2,63.1 51,62.8 51.7,62.3 C52.9,61.4 53.5,59.8 53.2,58.3 L49.7,40.6 L62,28.3 C62.8,27.5 63.2,26.5 63.2,25.5 C63.2,25.1 63.1,24.6 63,24.2 L63,24.2 Z"></path>
                <path d="M167.8,24.2 C167.3,22.8 166.1,21.8 164.7,21.5 L148,18.9 L140,2 C139.3,0.6 138,-0.3 136.4,-0.3 C134.9,-0.3 133.5,0.6 132.8,2 L124.8,18.9 L108.1,21.5 C106.6,21.7 105.4,22.8 105,24.2 C104.9,24.6 104.8,25 104.8,25.4 C104.8,26.4 105.2,27.4 106,28.2 L118.3,40.5 L114.8,58.2 C114.5,59.7 115.1,61.3 116.3,62.2 C117,62.7 117.8,63 118.6,63 C119.3,63 119.9,62.8 120.5,62.5 L136.4,53.7 L152.3,62.5 C152.9,62.8 153.6,63 154.2,63 C155,63 155.8,62.7 156.5,62.2 C157.7,61.3 158.3,59.7 158,58.2 L154.5,40.5 L166.8,28.2 C167.6,27.4 168,26.4 168,25.4 C168,25.1 168,24.6 167.8,24.2 L167.8,24.2 Z"></path>
                <path d="M282,24.2 C281.5,22.8 280.3,21.8 278.9,21.5 L262.2,18.9 L254.2,2 C253.5,0.6 252.2,-0.3 250.6,-0.3 C249.1,-0.3 247.7,0.6 247,2 L239,18.9 L222.3,21.5 C220.8,21.7 219.6,22.8 219.2,24.2 C219.1,24.6 219,25 219,25.4 C219,26.4 219.4,27.4 220.2,28.2 L232.5,40.5 L229,58.3 C228.7,59.8 229.3,61.4 230.5,62.3 C231.2,62.8 232,63.1 232.8,63.1 C233.5,63.1 234.1,62.9 234.7,62.6 L250.6,53.8 L266.5,62.6 C267.1,62.9 267.8,63.1 268.4,63.1 C269.2,63.1 270,62.8 270.7,62.3 C271.9,61.4 272.5,59.8 272.2,58.3 L268.7,40.6 L281,28.3 C281.8,27.5 282.2,26.5 282.2,25.5 C282.2,25.1 282.2,24.6 282,24.2 L282,24.2 Z"></path>
            </g>
            <g transform="translate(86.000000, 362.000000)" fill="#EFEDE9" sketch:type="MSShapeGroup">
                <path d="M0.5,1 L30.8,1 C48.5,1 59.2,11.5 59.2,26.6 L59.2,26.8 C59.2,44 45.9,52.9 29.2,52.9 L16.8,52.9 L16.8,75.1 L0.5,75.1 L0.5,1 L0.5,1 Z M29.8,38.4 C38,38.4 42.7,33.5 42.7,27.2 L42.7,27 C42.7,19.7 37.6,15.8 29.5,15.8 L16.9,15.8 L16.9,38.5 L29.8,38.5 L29.8,38.4 Z" id="Shape-13"></path>
                <path d="M95.6,0.5 L110.6,0.5 L142.4,75.2 L125.3,75.2 L118.5,58.6 L87.1,58.6 L80.3,75.2 L63.7,75.2 L95.6,0.5 L95.6,0.5 Z M112.8,44.2 L102.9,20.2 L93,44.2 L112.8,44.2 L112.8,44.2 Z" id="Shape-8"></path>
                <path d="M160.3,1 L194.2,1 C203.6,1 210.9,3.6 215.8,8.5 C219.9,12.6 222.2,18.5 222.2,25.4 L222.2,25.6 C222.2,37.6 215.7,45.1 206.3,48.6 L224.4,75.1 L205.3,75.1 L189.4,51.4 L176.6,51.4 L176.6,75.1 L160.3,75.1 L160.3,1 L160.3,1 Z M193.1,37.1 C201,37.1 205.6,32.9 205.6,26.6 L205.6,26.4 C205.6,19.4 200.7,15.8 192.8,15.8 L176.6,15.8 L176.6,37.1 L193.1,37.1 L193.1,37.1 Z" id="Shape-9"></path>
                <path d="M260.5,16.1 L237.9,16.1 L237.9,1.1 L299.3,1.1 L299.3,16.1 L276.7,16.1 L276.7,75.2 L260.4,75.2 L260.4,16.1 L260.5,16.1 Z" id="Shape-10"></path>
                <path d="M339.1,46 L310.6,1 L329.7,1 L347.4,30.8 L365.4,1 L383.9,1 L355.4,45.6 L355.4,75.2 L339.1,75.2 L339.1,46 L339.1,46 Z" id="Shape-11"></path>
                <path d="M399.2,3.2 L399.2,1 L418.1,1 L418.1,3.1 L413.1,49.9 L404.2,49.9 L399.2,3.2 L399.2,3.2 Z M400.1,58.2 L417.3,58.2 L417.3,75.1 L400.1,75.1 L400.1,58.2 L400.1,58.2 Z" id="Shape-12"></path>
            </g>
        </g>
    </g>
</svg>