<svg xmlns="http://www.w3.org/2000/svg" xmlns:xlink="http://www.w3.org/1999/xlink" version="1.1" id="Layer_1" x="0px" y="0px" viewBox="0 0 100 100" enable-background="new 0 0 100 100" xml:space="preserve">
<g>
	<path d="M61.2,56.101c2.251,0,3.3-1.049,3.3-3.301c0-2.251-1.049-3.299-3.3-3.299s-3.3,1.048-3.3,3.299   C57.9,55.052,58.949,56.101,61.2,56.101z"/>
	<path d="M50,33.7c2.251,0,3.3-1.049,3.3-3.3c0-2.252-1.049-3.3-3.3-3.3s-3.3,1.048-3.3,3.3C46.7,32.651,47.749,33.7,50,33.7z"/>
	<path d="M61.2,44.9c2.251,0,3.3-1.049,3.3-3.3s-1.049-3.3-3.3-3.3s-3.3,1.049-3.3,3.3S58.949,44.9,61.2,44.9z"/>
	<path d="M58.4,75.7H62.6c1.119,0,1.9-0.781,1.9-1.9c0-1.118-0.781-1.899-1.9-1.899H58.4c-1.119,0-1.9,0.781-1.9,1.899   C56.5,74.919,57.281,75.7,58.4,75.7z"/>
	<path d="M50,76.101c-1.119,0-1.9,0.781-1.9,1.9V82.2c0,1.119,0.781,1.9,1.9,1.9c1.119,0,1.9-0.781,1.9-1.9v-4.199   C51.9,76.882,51.119,76.101,50,76.101z"/>
	<path d="M61.2,33.7c2.251,0,3.3-1.049,3.3-3.3c0-2.252-1.049-3.3-3.3-3.3s-3.3,1.048-3.3,3.3C57.9,32.651,58.949,33.7,61.2,33.7z"/>
	<path d="M50,63.501c-1.119,0-1.9,0.781-1.9,1.899v4.2c0,1.119,0.781,1.9,1.9,1.9c1.119,0,1.9-0.781,1.9-1.9v-4.2   C51.9,64.282,51.119,63.501,50,63.501z"/>
	<path d="M38.8,18.301c1.119,0,1.9-0.781,1.9-1.9s-0.781-1.9-1.9-1.9s-1.9,0.781-1.9,1.9S37.682,18.301,38.8,18.301z"/>
	<path d="M38.8,56.101c2.251,0,3.3-1.049,3.3-3.301c0-2.251-1.048-3.299-3.3-3.299s-3.3,1.048-3.3,3.299   C35.5,55.052,36.549,56.101,38.8,56.101z"/>
	<path d="M37.4,75.7h4.2c1.119,0,1.9-0.781,1.9-1.9c0-1.118-0.781-1.899-1.9-1.899h-4.2c-1.119,0-1.9,0.781-1.9,1.899   C35.5,74.919,36.282,75.7,37.4,75.7z"/>
	<path d="M66.801,4.7H33.2c-3.364,0-6.1,2.736-6.1,6.101V89.2c0,3.363,2.736,6.1,6.1,6.1h33.601c3.363,0,6.1-2.736,6.1-6.1V10.801   C72.9,7.437,70.164,4.7,66.801,4.7z M30.9,10.801c0-1.269,1.032-2.301,2.3-2.301h33.601c1.268,0,2.299,1.032,2.299,2.301V89.2   c0,1.269-1.031,2.301-2.299,2.301H33.2c-1.268,0-2.3-1.032-2.3-2.301V10.801z"/>
	<path d="M50,44.9c2.251,0,3.3-1.049,3.3-3.3s-1.049-3.3-3.3-3.3s-3.3,1.049-3.3,3.3S47.749,44.9,50,44.9z"/>
	<path d="M38.8,44.9c2.251,0,3.3-1.049,3.3-3.3s-1.048-3.3-3.3-3.3s-3.3,1.049-3.3,3.3S36.549,44.9,38.8,44.9z"/>
	<path d="M50,56.101c2.251,0,3.3-1.049,3.3-3.301c0-2.251-1.049-3.299-3.3-3.299s-3.3,1.048-3.3,3.299   C46.7,55.052,47.749,56.101,50,56.101z"/>
	<path d="M38.8,33.7c2.251,0,3.3-1.049,3.3-3.3c0-2.252-1.048-3.3-3.3-3.3s-3.3,1.048-3.3,3.3C35.5,32.651,36.549,33.7,38.8,33.7z"/>
</g>
</svg>